{"title":"Star.Trek.Into.Darkness.2013.HDrip.x264.ac3.kste","uid":8924257,"size":1607772811,"categoryP":"video","categoryS":"hd___movies","magnet":"?xt=urn:btih:566b0625bbaa382856f58b15533ca1089abd0905&amp;dn=Star.Trek.Into.Darkness.2013.HDrip.x264.ac3.kste&amp;tr=udp%3A%2F%2Ftracker.openbittorrent.com%3A80&amp;tr=udp%3A%2F%2Fopen.demonii.com%3A1337&amp;tr=udp%3A%2F%2Ftracker.coppersurfer.tk%3A6969&amp;tr=udp%3A%2F%2Fexodus.desync.com%3A6969","seeders":2,"leechers":0,"uploader":"jessketeer","files":-1,"time":1379327856,"description":"READ THIS PLEASE: VIETNAMESE HARDCORE SUBTILLE\n\n\nFormat                                   : Matroska\nFormat version                           : Version 2\nFile size                                : 1.50 GiB\nDuration                                 : 2h 12mn\nOverall bit rate mode                    : Variable\nOverall bit rate                         : 1 619 Kbps\nEncoded date                             : UTC 2013-09-16 01:53:53\nWriting application                      : mkvmerge v6.2.0 ('Promised Land') built on Apr 28 2013 12:22:01\nWriting library                          : libebml v1.3.0 + libmatroska v1.4.0\n\nVideo\nID                                       : 1\nFormat                                   : AVC\nFormat/Info                              : Advanced Video Codec\nFormat profile                           : &lt;a class=&quot;__cf_email__&quot; href=&quot;/cdn-cgi/l/email-protection&quot; data-cfemail=&quot;ade5c4cac5ede199839c&quot;&gt;[email&amp;#160;protected]&lt;/a&gt;&lt;script cf-hash='f9e31' type=&quot;text/javascript&quot;&gt;\n/* &lt;![CDATA[ */!function(){try{var t=&quot;currentScript&quot;in document?document.currentScript:function(){for(var t=document.getElementsByTagName(&quot;script&quot;),e=t.length;e--;)if(t[e].getAttribute(&quot;cf-hash&quot;))return t[e]}();if(t&amp;&amp;t.previousSibling){var e,r,n,i,c=t.previousSibling,a=c.getAttribute(&quot;data-cfemail&quot;);if(a){for(e=&quot;&quot;,r=parseInt(a.substr(0,2),16),n=2;a.length-n;n+=2)i=parseInt(a.substr(n,2),16)^r,e+=String.fromCharCode(i);e=document.createTextNode(e),c.parentNode.replaceChild(e,c)}}}catch(u){}}();/* ]]&gt; */&lt;/script&gt;\nFormat settings, CABAC                   : Yes\nFormat settings, ReFrames                : 3 frames\nCodec ID                                 : V_MPEG4/ISO/AVC\nDuration                                 : 2h 12mn\nBit rate mode                            : Variable\nBit rate                                 : 1 489 Kbps\nMaximum bit rate                         : 40.0 Mbps\nWidth                                    : 1 280 pixels\nHeight                                   : 528 pixels\nDisplay aspect ratio                     : 2.40:1\nFrame rate mode                          : Constant\nFrame rate                               : 23.976 fps\nColor space                              : YUV\nChroma subsampling                       : 4:2:0\nBit depth                                : 8 bits\nScan type                                : Progressive\nBits/(Pixel*Frame)                       : 0.092\nStream size                              : 1.35 GiB (90%)\nWriting library                          : x264 core 133 r2334 a3ac64b\n\n\nAudio\nID                                       : 2\nFormat                                   : MPEG Audio\nFormat version                           : Version 1\nFormat profile                           : Layer 3\nMode                                     : Joint stereo\nMode extension                           : MS Stereo\nCodec ID                                 : A_MPEG/L3\nCodec ID/Hint                            : MP3\nDuration                                 : 2h 12mn\nBit rate mode                            : Constant\nBit rate                                 : 128 Kbps\nChannel(s)                               : 2 channels\nSampling rate                            : 48.0 KHz\nCompression mode                         : Lossy\nStream size                              : 121 MiB (8%)\nWriting library                          : LAME3.99r\nEncoding settings                        : -m j -V 4 -q 2 -lowpass 17 -b 128\nDefault                                  : Yes\nForced                                   : No\n\n","torrent":{"xt":"urn:btih:566b0625bbaa382856f58b15533ca1089abd0905","amp;dn":"Star.Trek.Into.Darkness.2013.HDrip.x264.ac3.kste","amp;tr":["udp%3A%2F%2Ftracker.openbittorrent.com%3A80","udp%3A%2F%2Fopen.demonii.com%3A1337","udp%3A%2F%2Ftracker.coppersurfer.tk%3A6969","udp%3A%2F%2Fexodus.desync.com%3A6969"],"infoHash":"566b0625bbaa382856f58b15533ca1089abd0905","infoHashBuffer":{"type":"Buffer","data":[86,107,6,37,187,170,56,40,86,245,139,21,83,60,161,8,154,189,9,5]},"announce":[],"urlList":[]}}